<svg width="128" height="128" xmlns="http://www.w3.org/2000/svg">
 <g id="Layer_1">
  <title>Layer 1</title>
  <path stroke-width="0" id="svg_1" d="m8.43396,68.48726l0,0c0,-30.68827 24.87777,-55.56604 55.56604,-55.56604l0,0c14.73702,0 28.87047,5.85426 39.29111,16.27491c10.42066,10.42066 16.27492,24.55409 16.27492,39.29113l0,0c0,30.68827 -24.87777,55.56604 -55.56604,55.56604l0,0c-30.68827,0 -55.56604,-24.87777 -55.56604,-55.56604zm27.78302,0l0,0c0,15.34413 12.43889,27.78302 27.78302,27.78302c15.34414,0 27.78302,-12.43889 27.78302,-27.78302c0,-15.34413 -12.43889,-27.78302 -27.78302,-27.78302l0,0c-15.34413,0 -27.78302,12.43889 -27.78302,27.78302z" stroke="#000" fill="#DDDDDD"/>
  <path transform="rotate(90 64 26.4069)" stroke-width="0" stroke="#000" id="svg_2" d="m55.93789,22.34797l16.12421,0l0,0c2.11232,0 3.82469,1.81726 3.82469,4.05897c0,2.2417 -1.71237,4.05896 -3.82469,4.05896l-16.12421,0l0,0c-2.11232,0 -3.82469,-1.81726 -3.82469,-4.05896c0,-2.24171 1.71237,-4.05897 3.82469,-4.05897z" fill="#729C62"/>
 </g>
</svg>